<mxfile host="65bd71144e">
    <diagram id="XrlCPoU90Yz38b77uYmN" name="Page-1">
        <mxGraphModel dx="718" dy="790" grid="1" gridSize="10" guides="1" tooltips="1" connect="1" arrows="1" fold="1" page="0" pageScale="1" pageWidth="827" pageHeight="1169" background="none" math="0" shadow="0">
            <root>
                <mxCell id="0"/>
                <mxCell id="1" parent="0"/>
                <mxCell id="92" style="edgeStyle=none;html=1;entryX=1;entryY=0.5;entryDx=0;entryDy=0;endArrow=none;endFill=0;strokeColor=#FFFFFF;strokeWidth=2;shape=link;" parent="1" source="4" target="301" edge="1">
                    <mxGeometry relative="1" as="geometry">
                        <mxPoint x="1010" y="580" as="targetPoint"/>
                    </mxGeometry>
                </mxCell>
                <mxCell id="305" style="edgeStyle=none;html=1;entryX=0;entryY=0.5;entryDx=0;entryDy=0;strokeWidth=2;endArrow=none;endFill=0;strokeColor=#FFFFFF;" parent="1" source="4" target="304" edge="1">
                    <mxGeometry relative="1" as="geometry"/>
                </mxCell>
                <mxCell id="4" value="" style="rounded=0;whiteSpace=wrap;html=1;fillColor=none;strokeColor=#77BC65;strokeWidth=2;" parent="1" vertex="1">
                    <mxGeometry x="1040" y="560" width="120" height="40" as="geometry"/>
                </mxCell>
                <mxCell id="5" value="&lt;font color=&quot;#ffffff&quot;&gt;Presidente&lt;/font&gt;" style="rounded=0;whiteSpace=wrap;html=1;fillColor=none;strokeColor=#77BC65;strokeWidth=2;" parent="1" vertex="1">
                    <mxGeometry x="1050" y="570" width="100" height="20" as="geometry"/>
                </mxCell>
                <mxCell id="26" style="edgeStyle=orthogonalEdgeStyle;shape=connector;rounded=1;html=1;entryX=0.5;entryY=1;entryDx=0;entryDy=0;labelBackgroundColor=default;fontFamily=Helvetica;fontSize=11;fontColor=default;endArrow=none;endFill=0;strokeColor=#FFFFFF;strokeWidth=2;" parent="1" source="12" target="21" edge="1">
                    <mxGeometry relative="1" as="geometry"/>
                </mxCell>
                <mxCell id="265" style="edgeStyle=orthogonalEdgeStyle;html=1;entryX=0.5;entryY=0;entryDx=0;entryDy=0;fontColor=#FFFFFF;endArrow=none;endFill=0;strokeColor=#FFFFFF;strokeWidth=2;" parent="1" source="12" target="281" edge="1">
                    <mxGeometry relative="1" as="geometry">
                        <Array as="points">
                            <mxPoint x="520" y="420"/>
                        </Array>
                        <mxPoint x="520" y="470" as="targetPoint"/>
                    </mxGeometry>
                </mxCell>
                <mxCell id="12" value="&lt;font color=&quot;#ffffff&quot;&gt;Socios&lt;br&gt;&lt;/font&gt;" style="rounded=0;whiteSpace=wrap;html=1;fillColor=none;strokeColor=#77BC65;strokeWidth=2;" parent="1" vertex="1">
                    <mxGeometry x="560" y="400" width="120" height="40" as="geometry"/>
                </mxCell>
                <mxCell id="20" value="" style="edgeStyle=orthogonalEdgeStyle;html=1;entryX=0.5;entryY=0;entryDx=0;entryDy=0;strokeWidth=2;strokeColor=#FFFFFF;endArrow=none;endFill=0;" parent="1" source="13" target="14" edge="1">
                    <mxGeometry relative="1" as="geometry"/>
                </mxCell>
                <mxCell id="13" value="&lt;font color=&quot;#ffffff&quot;&gt;ONGs&lt;br&gt;&lt;/font&gt;" style="rounded=0;whiteSpace=wrap;html=1;fillColor=none;strokeColor=#77BC65;strokeWidth=2;" parent="1" vertex="1">
                    <mxGeometry x="720" y="560" width="120" height="40" as="geometry"/>
                </mxCell>
                <mxCell id="14" value="" style="swimlane;startSize=0;labelBackgroundColor=none;fontColor=#FFFFFF;strokeColor=#729FCF;strokeWidth=2;fillColor=none;" parent="1" vertex="1">
                    <mxGeometry x="720" y="640" width="120" height="120" as="geometry">
                        <mxRectangle x="720" y="640" width="50" height="40" as="alternateBounds"/>
                    </mxGeometry>
                </mxCell>
                <mxCell id="16" value="Nombre" style="text;html=1;strokeColor=none;fillColor=none;align=left;verticalAlign=middle;whiteSpace=wrap;rounded=0;labelBackgroundColor=none;fontColor=#FFFFFF;strokeWidth=1;" parent="14" vertex="1">
                    <mxGeometry y="20" width="120" height="20" as="geometry"/>
                </mxCell>
                <mxCell id="17" value="Dirección de sede" style="text;html=1;strokeColor=none;fillColor=none;align=left;verticalAlign=middle;whiteSpace=wrap;rounded=0;labelBackgroundColor=none;fontColor=#FFFFFF;strokeWidth=1;" parent="14" vertex="1">
                    <mxGeometry y="40" width="120" height="20" as="geometry"/>
                </mxCell>
                <mxCell id="18" value="Área de acción" style="text;html=1;strokeColor=none;fillColor=none;align=left;verticalAlign=middle;whiteSpace=wrap;rounded=0;labelBackgroundColor=none;fontColor=#FFFFFF;strokeWidth=1;" parent="14" vertex="1">
                    <mxGeometry y="80" width="120" height="20" as="geometry"/>
                </mxCell>
                <mxCell id="134" value="Teléfono" style="text;html=1;strokeColor=none;fillColor=none;align=left;verticalAlign=middle;whiteSpace=wrap;rounded=0;labelBackgroundColor=none;fontColor=#FFFFFF;strokeWidth=1;" parent="14" vertex="1">
                    <mxGeometry y="60" width="120" height="20" as="geometry"/>
                </mxCell>
                <mxCell id="21" value="" style="swimlane;startSize=0;labelBackgroundColor=none;fontColor=#FFFFFF;strokeColor=#729FCF;strokeWidth=2;fillColor=none;" parent="1" vertex="1">
                    <mxGeometry x="560" y="200" width="120" height="160" as="geometry">
                        <mxRectangle x="560" y="200" width="50" height="40" as="alternateBounds"/>
                    </mxGeometry>
                </mxCell>
                <mxCell id="23" value="Nombre" style="text;html=1;strokeColor=none;fillColor=none;align=left;verticalAlign=middle;whiteSpace=wrap;rounded=0;labelBackgroundColor=none;fontColor=#FFFFFF;strokeWidth=1;" parent="21" vertex="1">
                    <mxGeometry y="20" width="120" height="20" as="geometry"/>
                </mxCell>
                <mxCell id="24" value="Apellidos" style="text;html=1;strokeColor=none;fillColor=none;align=left;verticalAlign=middle;whiteSpace=wrap;rounded=0;labelBackgroundColor=none;fontColor=#FFFFFF;strokeWidth=1;" parent="21" vertex="1">
                    <mxGeometry y="40" width="120" height="20" as="geometry"/>
                </mxCell>
                <mxCell id="25" value="NIF" style="text;html=1;strokeColor=none;fillColor=none;align=left;verticalAlign=middle;whiteSpace=wrap;rounded=0;labelBackgroundColor=none;fontColor=#FFFFFF;strokeWidth=1;" parent="21" vertex="1">
                    <mxGeometry y="60" width="120" height="20" as="geometry"/>
                </mxCell>
                <mxCell id="27" value="Fecha nacimiento" style="text;html=1;strokeColor=none;fillColor=none;align=left;verticalAlign=middle;whiteSpace=wrap;rounded=0;labelBackgroundColor=none;fontColor=#FFFFFF;strokeWidth=1;" parent="21" vertex="1">
                    <mxGeometry y="80" width="120" height="20" as="geometry"/>
                </mxCell>
                <mxCell id="28" value="Correo electrónico" style="text;html=1;strokeColor=none;fillColor=none;align=left;verticalAlign=middle;whiteSpace=wrap;rounded=0;labelBackgroundColor=none;fontColor=#FFFFFF;strokeWidth=1;" parent="21" vertex="1">
                    <mxGeometry y="120" width="120" height="20" as="geometry"/>
                </mxCell>
                <mxCell id="29" value="Tipo colaboración" style="text;html=1;strokeColor=none;fillColor=none;align=left;verticalAlign=middle;whiteSpace=wrap;rounded=0;labelBackgroundColor=none;fontColor=#FFFFFF;strokeWidth=1;" parent="21" vertex="1">
                    <mxGeometry y="140" width="120" height="20" as="geometry"/>
                </mxCell>
                <mxCell id="49" value="Teléfono" style="text;html=1;strokeColor=none;fillColor=none;align=left;verticalAlign=middle;whiteSpace=wrap;rounded=0;labelBackgroundColor=none;fontColor=#FFFFFF;strokeWidth=1;" parent="21" vertex="1">
                    <mxGeometry y="100" width="120" height="20" as="geometry"/>
                </mxCell>
                <mxCell id="47" value="" style="edgeStyle=orthogonalEdgeStyle;html=1;endArrow=none;endFill=0;strokeWidth=2;strokeColor=#FFFFFF;entryX=0.5;entryY=1;entryDx=0;entryDy=0;" parent="1" source="37" target="39" edge="1">
                    <mxGeometry relative="1" as="geometry"/>
                </mxCell>
                <mxCell id="81" style="edgeStyle=none;html=1;entryX=0.5;entryY=0;entryDx=0;entryDy=0;endArrow=none;endFill=0;strokeColor=#FFFFFF;strokeWidth=2;" parent="1" source="37" target="80" edge="1">
                    <mxGeometry relative="1" as="geometry"/>
                </mxCell>
                <mxCell id="37" value="&lt;font color=&quot;#ffffff&quot;&gt;Trabajadores&lt;/font&gt;" style="rounded=0;whiteSpace=wrap;html=1;fillColor=none;strokeColor=#77BC65;strokeWidth=2;" parent="1" vertex="1">
                    <mxGeometry x="720" y="400" width="120" height="40" as="geometry"/>
                </mxCell>
                <mxCell id="39" value="" style="swimlane;startSize=0;labelBackgroundColor=none;fontColor=#FFFFFF;strokeColor=#729FCF;strokeWidth=2;fillColor=none;" parent="1" vertex="1">
                    <mxGeometry x="720" y="180" width="120" height="180" as="geometry">
                        <mxRectangle x="720" y="180" width="50" height="40" as="alternateBounds"/>
                    </mxGeometry>
                </mxCell>
                <mxCell id="41" value="Nombre" style="text;html=1;strokeColor=none;fillColor=none;align=left;verticalAlign=middle;whiteSpace=wrap;rounded=0;labelBackgroundColor=none;fontColor=#FFFFFF;strokeWidth=1;" parent="39" vertex="1">
                    <mxGeometry y="20" width="120" height="20" as="geometry"/>
                </mxCell>
                <mxCell id="42" value="Apellidos" style="text;html=1;strokeColor=none;fillColor=none;align=left;verticalAlign=middle;whiteSpace=wrap;rounded=0;labelBackgroundColor=none;fontColor=#FFFFFF;strokeWidth=1;" parent="39" vertex="1">
                    <mxGeometry y="40" width="120" height="20" as="geometry"/>
                </mxCell>
                <mxCell id="43" value="NIF" style="text;html=1;strokeColor=none;fillColor=none;align=left;verticalAlign=middle;whiteSpace=wrap;rounded=0;labelBackgroundColor=none;fontColor=#FFFFFF;strokeWidth=1;" parent="39" vertex="1">
                    <mxGeometry y="60" width="120" height="20" as="geometry"/>
                </mxCell>
                <mxCell id="44" value="Fecha nacimiento" style="text;html=1;strokeColor=none;fillColor=none;align=left;verticalAlign=middle;whiteSpace=wrap;rounded=0;labelBackgroundColor=none;fontColor=#FFFFFF;strokeWidth=1;" parent="39" vertex="1">
                    <mxGeometry y="80" width="120" height="20" as="geometry"/>
                </mxCell>
                <mxCell id="45" value="Correo electrónico" style="text;html=1;strokeColor=none;fillColor=none;align=left;verticalAlign=middle;whiteSpace=wrap;rounded=0;labelBackgroundColor=none;fontColor=#FFFFFF;strokeWidth=1;" parent="39" vertex="1">
                    <mxGeometry y="120" width="120" height="20" as="geometry"/>
                </mxCell>
                <mxCell id="48" value="Teléfono" style="text;html=1;strokeColor=none;fillColor=none;align=left;verticalAlign=middle;whiteSpace=wrap;rounded=0;labelBackgroundColor=none;fontColor=#FFFFFF;strokeWidth=1;" parent="39" vertex="1">
                    <mxGeometry y="100" width="120" height="20" as="geometry"/>
                </mxCell>
                <mxCell id="50" value="IBAN" style="text;html=1;strokeColor=none;fillColor=none;align=left;verticalAlign=middle;whiteSpace=wrap;rounded=0;labelBackgroundColor=none;fontColor=#FFFFFF;strokeWidth=1;" parent="39" vertex="1">
                    <mxGeometry y="140" width="120" height="20" as="geometry"/>
                </mxCell>
                <mxCell id="46" value="Neto anual" style="text;html=1;strokeColor=none;fillColor=none;align=left;verticalAlign=middle;whiteSpace=wrap;rounded=0;labelBackgroundColor=none;fontColor=#FFFFFF;strokeWidth=1;" parent="39" vertex="1">
                    <mxGeometry y="160" width="120" height="20" as="geometry"/>
                </mxCell>
                <mxCell id="51" value="" style="edgeStyle=orthogonalEdgeStyle;html=1;endArrow=none;endFill=0;strokeWidth=2;strokeColor=#FFFFFF;entryX=0.5;entryY=1;entryDx=0;entryDy=0;" parent="1" source="52" target="53" edge="1">
                    <mxGeometry relative="1" as="geometry"/>
                </mxCell>
                <mxCell id="76" style="edgeStyle=none;html=1;entryX=0;entryY=0.5;entryDx=0;entryDy=0;endArrow=none;endFill=0;strokeColor=#FFFFFF;strokeWidth=2;" parent="1" source="52" target="175" edge="1">
                    <mxGeometry relative="1" as="geometry">
                        <mxPoint x="1040" y="420" as="targetPoint"/>
                    </mxGeometry>
                </mxCell>
                <mxCell id="84" style="edgeStyle=none;html=1;entryX=0.5;entryY=0;entryDx=0;entryDy=0;endArrow=none;endFill=0;strokeColor=#FFFFFF;strokeWidth=2;" parent="1" source="52" target="83" edge="1">
                    <mxGeometry relative="1" as="geometry"/>
                </mxCell>
                <mxCell id="52" value="&lt;font color=&quot;#ffffff&quot;&gt;Personal de apoyo&lt;/font&gt;" style="rounded=0;whiteSpace=wrap;html=1;fillColor=none;strokeColor=#77BC65;strokeWidth=2;" parent="1" vertex="1">
                    <mxGeometry x="880" y="400" width="120" height="40" as="geometry"/>
                </mxCell>
                <mxCell id="53" value="" style="swimlane;startSize=0;labelBackgroundColor=none;fontColor=#FFFFFF;strokeColor=#729FCF;strokeWidth=2;fillColor=none;" parent="1" vertex="1">
                    <mxGeometry x="880" y="220" width="120" height="140" as="geometry">
                        <mxRectangle x="880" y="220" width="50" height="40" as="alternateBounds"/>
                    </mxGeometry>
                </mxCell>
                <mxCell id="55" value="Nombre" style="text;html=1;strokeColor=none;fillColor=none;align=left;verticalAlign=middle;whiteSpace=wrap;rounded=0;labelBackgroundColor=none;fontColor=#FFFFFF;strokeWidth=1;" parent="53" vertex="1">
                    <mxGeometry y="20" width="120" height="20" as="geometry"/>
                </mxCell>
                <mxCell id="56" value="Apellidos" style="text;html=1;strokeColor=none;fillColor=none;align=left;verticalAlign=middle;whiteSpace=wrap;rounded=0;labelBackgroundColor=none;fontColor=#FFFFFF;strokeWidth=1;" parent="53" vertex="1">
                    <mxGeometry y="40" width="120" height="20" as="geometry"/>
                </mxCell>
                <mxCell id="57" value="NIF" style="text;html=1;strokeColor=none;fillColor=none;align=left;verticalAlign=middle;whiteSpace=wrap;rounded=0;labelBackgroundColor=none;fontColor=#FFFFFF;strokeWidth=1;" parent="53" vertex="1">
                    <mxGeometry y="60" width="120" height="20" as="geometry"/>
                </mxCell>
                <mxCell id="58" value="Fecha nacimiento" style="text;html=1;strokeColor=none;fillColor=none;align=left;verticalAlign=middle;whiteSpace=wrap;rounded=0;labelBackgroundColor=none;fontColor=#FFFFFF;strokeWidth=1;" parent="53" vertex="1">
                    <mxGeometry y="80" width="120" height="20" as="geometry"/>
                </mxCell>
                <mxCell id="59" value="Correo electrónico" style="text;html=1;strokeColor=none;fillColor=none;align=left;verticalAlign=middle;whiteSpace=wrap;rounded=0;labelBackgroundColor=none;fontColor=#FFFFFF;strokeWidth=1;" parent="53" vertex="1">
                    <mxGeometry y="120" width="120" height="20" as="geometry"/>
                </mxCell>
                <mxCell id="60" value="Teléfono" style="text;html=1;strokeColor=none;fillColor=none;align=left;verticalAlign=middle;whiteSpace=wrap;rounded=0;labelBackgroundColor=none;fontColor=#FFFFFF;strokeWidth=1;" parent="53" vertex="1">
                    <mxGeometry y="100" width="120" height="20" as="geometry"/>
                </mxCell>
                <mxCell id="78" style="edgeStyle=none;html=1;entryX=1;entryY=0.5;entryDx=0;entryDy=0;endArrow=none;endFill=0;strokeColor=#FFFFFF;strokeWidth=2;shape=link;" parent="1" source="64" target="175" edge="1">
                    <mxGeometry relative="1" as="geometry">
                        <mxPoint x="1140" y="420" as="targetPoint"/>
                    </mxGeometry>
                </mxCell>
                <mxCell id="64" value="" style="rounded=0;whiteSpace=wrap;html=1;fillColor=none;strokeColor=#77BC65;strokeWidth=2;" parent="1" vertex="1">
                    <mxGeometry x="1200" y="390" width="120" height="60" as="geometry"/>
                </mxCell>
                <mxCell id="65" value="&lt;font color=&quot;#ffffff&quot;&gt;Lista ayuda de ONGs&lt;/font&gt;" style="rounded=0;whiteSpace=wrap;html=1;fillColor=none;strokeColor=#77BC65;strokeWidth=2;" parent="1" vertex="1">
                    <mxGeometry x="1210" y="400" width="100" height="40" as="geometry"/>
                </mxCell>
                <mxCell id="75" style="edgeStyle=orthogonalEdgeStyle;html=1;endArrow=none;endFill=0;strokeColor=#FFFFFF;strokeWidth=2;entryX=0.5;entryY=0;entryDx=0;entryDy=0;exitX=0.5;exitY=1;exitDx=0;exitDy=0;" parent="1" source="66" target="64" edge="1">
                    <mxGeometry relative="1" as="geometry">
                        <mxPoint x="1170" y="390" as="sourcePoint"/>
                        <mxPoint x="1320" y="380" as="targetPoint"/>
                    </mxGeometry>
                </mxCell>
                <mxCell id="66" value="" style="swimlane;startSize=0;labelBackgroundColor=none;fontColor=#FFFFFF;strokeColor=#729FCF;strokeWidth=2;fillColor=none;" parent="1" vertex="1">
                    <mxGeometry x="1200" y="240" width="120" height="120" as="geometry">
                        <mxRectangle x="1200" y="240" width="50" height="40" as="alternateBounds"/>
                    </mxGeometry>
                </mxCell>
                <mxCell id="68" value="Agencia1" style="text;html=1;strokeColor=none;fillColor=none;align=left;verticalAlign=middle;whiteSpace=wrap;rounded=0;labelBackgroundColor=none;fontColor=#FFFFFF;strokeWidth=1;" parent="66" vertex="1">
                    <mxGeometry y="20" width="120" height="20" as="geometry"/>
                </mxCell>
                <mxCell id="69" value="Agencia2" style="text;html=1;strokeColor=none;fillColor=none;align=left;verticalAlign=middle;whiteSpace=wrap;rounded=0;labelBackgroundColor=none;fontColor=#FFFFFF;strokeWidth=1;" parent="66" vertex="1">
                    <mxGeometry y="40" width="120" height="20" as="geometry"/>
                </mxCell>
                <mxCell id="70" value="Agencia3" style="text;html=1;strokeColor=none;fillColor=none;align=left;verticalAlign=middle;whiteSpace=wrap;rounded=0;labelBackgroundColor=none;fontColor=#FFFFFF;strokeWidth=1;" parent="66" vertex="1">
                    <mxGeometry y="60" width="120" height="20" as="geometry"/>
                </mxCell>
                <mxCell id="71" value="Agencia4" style="text;html=1;strokeColor=none;fillColor=none;align=left;verticalAlign=middle;whiteSpace=wrap;rounded=0;labelBackgroundColor=none;fontColor=#FFFFFF;strokeWidth=1;" parent="66" vertex="1">
                    <mxGeometry y="80" width="120" height="20" as="geometry"/>
                </mxCell>
                <mxCell id="73" value="Agencia5" style="text;html=1;strokeColor=none;fillColor=none;align=left;verticalAlign=middle;whiteSpace=wrap;rounded=0;labelBackgroundColor=none;fontColor=#FFFFFF;strokeWidth=1;" parent="66" vertex="1">
                    <mxGeometry y="100" width="120" height="20" as="geometry"/>
                </mxCell>
                <mxCell id="82" style="edgeStyle=orthogonalEdgeStyle;html=1;entryX=0.5;entryY=0;entryDx=0;entryDy=0;endArrow=none;endFill=0;strokeColor=#FFFFFF;strokeWidth=2;exitX=0.5;exitY=1;exitDx=0;exitDy=0;" parent="1" source="80" target="13" edge="1">
                    <mxGeometry relative="1" as="geometry">
                        <Array as="points">
                            <mxPoint x="780" y="530"/>
                            <mxPoint x="780" y="530"/>
                        </Array>
                    </mxGeometry>
                </mxCell>
                <mxCell id="80" value="Empleado" style="rhombus;whiteSpace=wrap;html=1;labelBackgroundColor=none;fontColor=#FFFFFF;strokeColor=#FF6D6D;strokeWidth=2;fillColor=none;" parent="1" vertex="1">
                    <mxGeometry x="740" y="480" width="80" height="40" as="geometry"/>
                </mxCell>
                <mxCell id="85" style="edgeStyle=orthogonalEdgeStyle;html=1;entryX=1;entryY=0;entryDx=0;entryDy=0;endArrow=none;endFill=0;strokeColor=#FFFFFF;strokeWidth=2;exitX=0.5;exitY=1;exitDx=0;exitDy=0;" parent="1" source="83" target="13" edge="1">
                    <mxGeometry relative="1" as="geometry">
                        <mxPoint x="870" y="500" as="sourcePoint"/>
                    </mxGeometry>
                </mxCell>
                <mxCell id="83" value="Apoya" style="rhombus;whiteSpace=wrap;html=1;labelBackgroundColor=none;fontColor=#FFFFFF;strokeColor=#FF6D6D;strokeWidth=2;fillColor=none;" parent="1" vertex="1">
                    <mxGeometry x="900" y="480" width="80" height="40" as="geometry"/>
                </mxCell>
                <mxCell id="89" style="edgeStyle=orthogonalEdgeStyle;html=1;entryX=0;entryY=1;entryDx=0;entryDy=0;endArrow=none;endFill=0;strokeColor=#FFFFFF;strokeWidth=2;exitX=1;exitY=0.5;exitDx=0;exitDy=0;" parent="1" source="281" target="132" edge="1">
                    <mxGeometry relative="1" as="geometry">
                        <Array as="points">
                            <mxPoint x="720" y="500"/>
                        </Array>
                        <mxPoint x="590" y="500" as="sourcePoint"/>
                    </mxGeometry>
                </mxCell>
                <mxCell id="91" style="edgeStyle=orthogonalEdgeStyle;html=1;endArrow=none;endFill=0;strokeColor=#FFFFFF;strokeWidth=2;entryX=1;entryY=0.5;entryDx=0;entryDy=0;exitX=0;exitY=0.5;exitDx=0;exitDy=0;" parent="1" source="301" target="13" edge="1">
                    <mxGeometry relative="1" as="geometry">
                        <mxPoint x="920" y="580" as="sourcePoint"/>
                        <mxPoint x="870" y="560" as="targetPoint"/>
                        <Array as="points"/>
                    </mxGeometry>
                </mxCell>
                <mxCell id="103" style="edgeStyle=none;html=1;entryX=0.5;entryY=1;entryDx=0;entryDy=0;endArrow=none;endFill=0;strokeColor=#FFFFFF;strokeWidth=2;" parent="1" source="98" target="99" edge="1">
                    <mxGeometry relative="1" as="geometry"/>
                </mxCell>
                <mxCell id="98" value="&lt;font color=&quot;#ffffff&quot;&gt;Eventos&lt;/font&gt;" style="rounded=0;whiteSpace=wrap;html=1;fillColor=none;strokeColor=#77BC65;strokeWidth=2;" parent="1" vertex="1">
                    <mxGeometry x="880" y="820" width="120" height="40" as="geometry"/>
                </mxCell>
                <mxCell id="100" style="edgeStyle=orthogonalEdgeStyle;html=1;entryX=1;entryY=1;entryDx=0;entryDy=0;endArrow=none;endFill=0;strokeColor=#FFFFFF;strokeWidth=2;exitX=0;exitY=0.5;exitDx=0;exitDy=0;" parent="1" source="99" target="13" edge="1">
                    <mxGeometry relative="1" as="geometry">
                        <Array as="points">
                            <mxPoint x="880" y="700"/>
                            <mxPoint x="880" y="620"/>
                            <mxPoint x="840" y="620"/>
                        </Array>
                    </mxGeometry>
                </mxCell>
                <mxCell id="227" style="edgeStyle=orthogonalEdgeStyle;html=1;entryX=0;entryY=1;entryDx=0;entryDy=0;fontColor=#FFFFFF;endArrow=none;endFill=0;strokeColor=#FFFFFF;strokeWidth=2;exitX=1;exitY=0.5;exitDx=0;exitDy=0;" parent="1" source="99" target="4" edge="1">
                    <mxGeometry relative="1" as="geometry">
                        <Array as="points">
                            <mxPoint x="1000" y="700"/>
                            <mxPoint x="1000" y="620"/>
                            <mxPoint x="1040" y="620"/>
                        </Array>
                    </mxGeometry>
                </mxCell>
                <mxCell id="99" value="Crea" style="rhombus;whiteSpace=wrap;html=1;labelBackgroundColor=none;fontColor=#FFFFFF;strokeColor=#FF6D6D;strokeWidth=2;fillColor=none;" parent="1" vertex="1">
                    <mxGeometry x="900" y="680" width="80" height="40" as="geometry"/>
                </mxCell>
                <mxCell id="114" style="edgeStyle=none;html=1;entryX=0.5;entryY=1;entryDx=0;entryDy=0;endArrow=none;endFill=0;strokeColor=#FFFFFF;strokeWidth=2;" parent="1" source="109" target="98" edge="1">
                    <mxGeometry relative="1" as="geometry"/>
                </mxCell>
                <mxCell id="109" value="" style="swimlane;startSize=0;labelBackgroundColor=none;fontColor=#FFFFFF;strokeColor=#729FCF;strokeWidth=2;fillColor=none;" parent="1" vertex="1">
                    <mxGeometry x="880" y="900" width="120" height="100" as="geometry">
                        <mxRectangle x="600" y="600" width="50" height="40" as="alternateBounds"/>
                    </mxGeometry>
                </mxCell>
                <mxCell id="110" value="Nombre" style="text;html=1;strokeColor=none;fillColor=none;align=left;verticalAlign=middle;whiteSpace=wrap;rounded=0;labelBackgroundColor=none;fontColor=#FFFFFF;strokeWidth=1;" parent="109" vertex="1">
                    <mxGeometry y="40" width="120" height="20" as="geometry"/>
                </mxCell>
                <mxCell id="111" value="Año" style="text;html=1;strokeColor=none;fillColor=none;align=left;verticalAlign=middle;whiteSpace=wrap;rounded=0;labelBackgroundColor=none;fontColor=#FFFFFF;strokeWidth=1;" parent="109" vertex="1">
                    <mxGeometry y="60" width="120" height="20" as="geometry"/>
                </mxCell>
                <mxCell id="112" value="Ciudad" style="text;html=1;strokeColor=none;fillColor=none;align=left;verticalAlign=middle;whiteSpace=wrap;rounded=0;labelBackgroundColor=none;fontColor=#FFFFFF;strokeWidth=1;" parent="109" vertex="1">
                    <mxGeometry y="80" width="120" height="20" as="geometry"/>
                </mxCell>
                <mxCell id="145" value="Nº de evento" style="text;html=1;strokeColor=none;fillColor=none;align=left;verticalAlign=middle;whiteSpace=wrap;rounded=0;labelBackgroundColor=none;fontColor=#FFFFFF;strokeWidth=1;" parent="109" vertex="1">
                    <mxGeometry y="20" width="120" height="20" as="geometry"/>
                </mxCell>
                <mxCell id="121" value="&lt;font color=&quot;#ffffff&quot;&gt;1&lt;/font&gt;" style="text;html=1;strokeColor=none;fillColor=none;align=center;verticalAlign=middle;whiteSpace=wrap;rounded=0;" parent="1" vertex="1">
                    <mxGeometry x="840" y="560" width="20" height="20" as="geometry"/>
                </mxCell>
                <mxCell id="124" value="&lt;font color=&quot;#ffffff&quot;&gt;N&lt;/font&gt;" style="text;html=1;strokeColor=none;fillColor=none;align=center;verticalAlign=middle;whiteSpace=wrap;rounded=0;" parent="1" vertex="1">
                    <mxGeometry x="920" y="440" width="20" height="20" as="geometry"/>
                </mxCell>
                <mxCell id="125" value="&lt;font color=&quot;#ffffff&quot;&gt;1&lt;/font&gt;" style="text;html=1;strokeColor=none;fillColor=none;align=center;verticalAlign=middle;whiteSpace=wrap;rounded=0;" parent="1" vertex="1">
                    <mxGeometry x="820" y="540" width="20" height="20" as="geometry"/>
                </mxCell>
                <mxCell id="179" style="edgeStyle=orthogonalEdgeStyle;html=1;fontColor=#FFFFFF;endArrow=none;endFill=0;strokeColor=#FFFFFF;strokeWidth=2;exitX=0.5;exitY=0;exitDx=0;exitDy=0;entryX=1;entryY=0.5;entryDx=0;entryDy=0;" parent="1" source="126" target="98" edge="1">
                    <mxGeometry relative="1" as="geometry">
                        <mxPoint x="1040" y="780" as="targetPoint"/>
                        <Array as="points">
                            <mxPoint x="1100" y="840"/>
                        </Array>
                    </mxGeometry>
                </mxCell>
                <mxCell id="126" value="" style="rhombus;whiteSpace=wrap;html=1;labelBackgroundColor=none;fontColor=#FFFFFF;strokeColor=#FF6D6D;strokeWidth=2;fillColor=none;" parent="1" vertex="1">
                    <mxGeometry x="1040" y="870" width="120" height="60" as="geometry"/>
                </mxCell>
                <mxCell id="127" value="Contratado" style="rhombus;whiteSpace=wrap;html=1;labelBackgroundColor=none;fontColor=#FFFFFF;strokeColor=#FF6D6D;strokeWidth=2;fillColor=none;" parent="1" vertex="1">
                    <mxGeometry x="1060" y="880" width="80" height="40" as="geometry"/>
                </mxCell>
                <mxCell id="128" value="&lt;font color=&quot;#ffffff&quot;&gt;1:N&lt;/font&gt;" style="text;html=1;strokeColor=none;fillColor=none;align=center;verticalAlign=middle;whiteSpace=wrap;rounded=0;" parent="1" vertex="1">
                    <mxGeometry x="980" y="490" width="30" height="20" as="geometry"/>
                </mxCell>
                <mxCell id="129" value="&lt;font color=&quot;#ffffff&quot;&gt;1&lt;/font&gt;" style="text;html=1;strokeColor=none;fillColor=none;align=center;verticalAlign=middle;whiteSpace=wrap;rounded=0;" parent="1" vertex="1">
                    <mxGeometry x="760" y="540" width="20" height="20" as="geometry"/>
                </mxCell>
                <mxCell id="132" value="&lt;font color=&quot;#ffffff&quot;&gt;N&lt;/font&gt;" style="text;html=1;strokeColor=none;fillColor=none;align=center;verticalAlign=middle;whiteSpace=wrap;rounded=0;" parent="1" vertex="1">
                    <mxGeometry x="720" y="540" width="20" height="20" as="geometry"/>
                </mxCell>
                <mxCell id="133" value="&lt;font color=&quot;#ffffff&quot;&gt;N&lt;/font&gt;" style="text;html=1;strokeColor=none;fillColor=none;align=center;verticalAlign=middle;whiteSpace=wrap;rounded=0;" parent="1" vertex="1">
                    <mxGeometry x="760" y="440" width="20" height="20" as="geometry"/>
                </mxCell>
                <mxCell id="135" value="&lt;font color=&quot;#ffffff&quot;&gt;1&lt;/font&gt;" style="text;html=1;strokeColor=none;fillColor=none;align=center;verticalAlign=middle;whiteSpace=wrap;rounded=0;" parent="1" vertex="1">
                    <mxGeometry x="1000" y="400" width="20" height="20" as="geometry"/>
                </mxCell>
                <mxCell id="136" value="&lt;font color=&quot;#ffffff&quot;&gt;N&lt;/font&gt;" style="text;html=1;strokeColor=none;fillColor=none;align=center;verticalAlign=middle;whiteSpace=wrap;rounded=0;" parent="1" vertex="1">
                    <mxGeometry x="1180" y="400" width="20" height="20" as="geometry"/>
                </mxCell>
                <mxCell id="137" value="&lt;font color=&quot;#ffffff&quot;&gt;1:N&lt;/font&gt;" style="text;html=1;strokeColor=none;fillColor=none;align=center;verticalAlign=middle;whiteSpace=wrap;rounded=0;" parent="1" vertex="1">
                    <mxGeometry x="1085" y="450" width="30" height="20" as="geometry"/>
                </mxCell>
                <mxCell id="138" value="&lt;font color=&quot;#ffffff&quot;&gt;1:N&lt;/font&gt;" style="text;html=1;strokeColor=none;fillColor=none;align=center;verticalAlign=middle;whiteSpace=wrap;rounded=0;" parent="1" vertex="1">
                    <mxGeometry x="820" y="490" width="30" height="20" as="geometry"/>
                </mxCell>
                <mxCell id="142" value="&lt;font color=&quot;#ffffff&quot;&gt;1&lt;/font&gt;" style="text;html=1;strokeColor=none;fillColor=none;align=center;verticalAlign=middle;whiteSpace=wrap;rounded=0;" parent="1" vertex="1">
                    <mxGeometry x="840" y="600" width="20" height="20" as="geometry"/>
                </mxCell>
                <mxCell id="143" value="&lt;font color=&quot;#ffffff&quot;&gt;N&lt;/font&gt;" style="text;html=1;strokeColor=none;fillColor=none;align=center;verticalAlign=middle;whiteSpace=wrap;rounded=0;" parent="1" vertex="1">
                    <mxGeometry x="920" y="800" width="20" height="20" as="geometry"/>
                </mxCell>
                <mxCell id="144" value="&lt;font color=&quot;#ffffff&quot;&gt;1:1:N&lt;/font&gt;" style="text;html=1;strokeColor=none;fillColor=none;align=center;verticalAlign=middle;whiteSpace=wrap;rounded=0;" parent="1" vertex="1">
                    <mxGeometry x="970" y="710" width="30" height="20" as="geometry"/>
                </mxCell>
                <mxCell id="162" style="edgeStyle=orthogonalEdgeStyle;html=1;entryX=0.5;entryY=1;entryDx=0;entryDy=0;fontColor=#FFFFFF;endArrow=none;endFill=0;strokeColor=#FFFFFF;strokeWidth=2;" parent="1" source="153" target="4" edge="1">
                    <mxGeometry relative="1" as="geometry"/>
                </mxCell>
                <mxCell id="153" value="" style="swimlane;startSize=0;labelBackgroundColor=none;fontColor=#FFFFFF;strokeColor=#729FCF;strokeWidth=2;fillColor=none;" parent="1" vertex="1">
                    <mxGeometry x="1040" y="640" width="120" height="140" as="geometry">
                        <mxRectangle x="1130" y="640" width="50" height="40" as="alternateBounds"/>
                    </mxGeometry>
                </mxCell>
                <mxCell id="155" value="Nombre" style="text;html=1;strokeColor=none;fillColor=none;align=left;verticalAlign=middle;whiteSpace=wrap;rounded=0;labelBackgroundColor=none;fontColor=#FFFFFF;strokeWidth=1;" parent="153" vertex="1">
                    <mxGeometry y="20" width="120" height="20" as="geometry"/>
                </mxCell>
                <mxCell id="156" value="Apellidos" style="text;html=1;strokeColor=none;fillColor=none;align=left;verticalAlign=middle;whiteSpace=wrap;rounded=0;labelBackgroundColor=none;fontColor=#FFFFFF;strokeWidth=1;" parent="153" vertex="1">
                    <mxGeometry y="40" width="120" height="20" as="geometry"/>
                </mxCell>
                <mxCell id="157" value="NIF" style="text;html=1;strokeColor=none;fillColor=none;align=left;verticalAlign=middle;whiteSpace=wrap;rounded=0;labelBackgroundColor=none;fontColor=#FFFFFF;strokeWidth=1;" parent="153" vertex="1">
                    <mxGeometry y="60" width="120" height="20" as="geometry"/>
                </mxCell>
                <mxCell id="158" value="Fecha nacimiento" style="text;html=1;strokeColor=none;fillColor=none;align=left;verticalAlign=middle;whiteSpace=wrap;rounded=0;labelBackgroundColor=none;fontColor=#FFFFFF;strokeWidth=1;" parent="153" vertex="1">
                    <mxGeometry y="80" width="120" height="20" as="geometry"/>
                </mxCell>
                <mxCell id="159" value="Correo electrónico" style="text;html=1;strokeColor=none;fillColor=none;align=left;verticalAlign=middle;whiteSpace=wrap;rounded=0;labelBackgroundColor=none;fontColor=#FFFFFF;strokeWidth=1;" parent="153" vertex="1">
                    <mxGeometry y="120" width="120" height="20" as="geometry"/>
                </mxCell>
                <mxCell id="161" value="Teléfono" style="text;html=1;strokeColor=none;fillColor=none;align=left;verticalAlign=middle;whiteSpace=wrap;rounded=0;labelBackgroundColor=none;fontColor=#FFFFFF;strokeWidth=1;" parent="153" vertex="1">
                    <mxGeometry y="100" width="120" height="20" as="geometry"/>
                </mxCell>
                <mxCell id="175" value="" style="rhombus;whiteSpace=wrap;html=1;labelBackgroundColor=none;fontColor=#FFFFFF;strokeColor=#FF6D6D;strokeWidth=2;fillColor=none;" parent="1" vertex="1">
                    <mxGeometry x="1040" y="390" width="120" height="60" as="geometry"/>
                </mxCell>
                <mxCell id="176" value="Ayuda a" style="rhombus;whiteSpace=wrap;html=1;labelBackgroundColor=none;fontColor=#FFFFFF;strokeColor=#FF6D6D;strokeWidth=2;fillColor=none;" parent="1" vertex="1">
                    <mxGeometry x="1060" y="400" width="80" height="40" as="geometry"/>
                </mxCell>
                <mxCell id="178" value="&lt;font color=&quot;#ffffff&quot;&gt;1&lt;/font&gt;" style="text;html=1;strokeColor=none;fillColor=none;align=center;verticalAlign=middle;whiteSpace=wrap;rounded=0;" parent="1" vertex="1">
                    <mxGeometry x="1030" y="560" width="20" height="20" as="geometry"/>
                </mxCell>
                <mxCell id="231" style="edgeStyle=orthogonalEdgeStyle;html=1;entryX=1;entryY=0;entryDx=0;entryDy=0;fontColor=#FFFFFF;endArrow=none;endFill=0;strokeColor=#FFFFFF;strokeWidth=2;exitX=0.5;exitY=0;exitDx=0;exitDy=0;" parent="1" source="284" target="217" edge="1">
                    <mxGeometry relative="1" as="geometry">
                        <Array as="points">
                            <mxPoint x="620" y="800"/>
                            <mxPoint x="880" y="800"/>
                        </Array>
                        <mxPoint x="680" y="840" as="sourcePoint"/>
                    </mxGeometry>
                </mxCell>
                <mxCell id="181" value="Gestiona" style="rhombus;whiteSpace=wrap;html=1;labelBackgroundColor=none;fontColor=#FFFFFF;strokeColor=#FF6D6D;strokeWidth=2;fillColor=none;" parent="1" vertex="1">
                    <mxGeometry x="580" y="880" width="80" height="40" as="geometry"/>
                </mxCell>
                <mxCell id="185" style="edgeStyle=orthogonalEdgeStyle;html=1;fontColor=#FFFFFF;endArrow=none;endFill=0;strokeColor=#FFFFFF;strokeWidth=2;shape=link;entryX=0.5;entryY=1;entryDx=0;entryDy=0;" parent="1" source="182" target="126" edge="1">
                    <mxGeometry relative="1" as="geometry">
                        <mxPoint x="790" y="1040" as="targetPoint"/>
                        <Array as="points">
                            <mxPoint x="1100" y="945"/>
                            <mxPoint x="1100" y="945"/>
                        </Array>
                    </mxGeometry>
                </mxCell>
                <mxCell id="182" value="" style="rounded=0;whiteSpace=wrap;html=1;fillColor=none;strokeColor=#77BC65;strokeWidth=2;" parent="1" vertex="1">
                    <mxGeometry x="1040" y="960" width="120" height="40" as="geometry"/>
                </mxCell>
                <mxCell id="183" value="&lt;font color=&quot;#ffffff&quot;&gt;Lista de seguros&lt;/font&gt;" style="rounded=0;whiteSpace=wrap;html=1;fillColor=none;strokeColor=#77BC65;strokeWidth=2;" parent="1" vertex="1">
                    <mxGeometry x="1050" y="970" width="100" height="20" as="geometry"/>
                </mxCell>
                <mxCell id="192" style="edgeStyle=orthogonalEdgeStyle;html=1;entryX=0.5;entryY=1;entryDx=0;entryDy=0;fontColor=#FFFFFF;endArrow=none;endFill=0;strokeColor=#FFFFFF;strokeWidth=2;" parent="1" source="187" target="182" edge="1">
                    <mxGeometry relative="1" as="geometry"/>
                </mxCell>
                <mxCell id="187" value="" style="swimlane;startSize=0;labelBackgroundColor=none;fontColor=#FFFFFF;strokeColor=#729FCF;strokeWidth=2;fillColor=none;" parent="1" vertex="1">
                    <mxGeometry x="1040" y="1040" width="120" height="40" as="geometry">
                        <mxRectangle x="1080" y="1040" width="50" height="40" as="alternateBounds"/>
                    </mxGeometry>
                </mxCell>
                <mxCell id="191" value="Empresa contratada" style="text;html=1;strokeColor=none;fillColor=none;align=left;verticalAlign=middle;whiteSpace=wrap;rounded=0;labelBackgroundColor=none;fontColor=#FFFFFF;strokeWidth=1;" parent="187" vertex="1">
                    <mxGeometry y="20" width="120" height="20" as="geometry"/>
                </mxCell>
                <mxCell id="193" value="&lt;font color=&quot;#ffffff&quot;&gt;1&lt;/font&gt;" style="text;html=1;strokeColor=none;fillColor=none;align=center;verticalAlign=middle;whiteSpace=wrap;rounded=0;" parent="1" vertex="1">
                    <mxGeometry x="1000" y="820" width="20" height="20" as="geometry"/>
                </mxCell>
                <mxCell id="194" value="&lt;font color=&quot;#ffffff&quot;&gt;N&lt;/font&gt;" style="text;html=1;strokeColor=none;fillColor=none;align=center;verticalAlign=middle;whiteSpace=wrap;rounded=0;" parent="1" vertex="1">
                    <mxGeometry x="1100" y="940" width="20" height="20" as="geometry"/>
                </mxCell>
                <mxCell id="195" value="&lt;font color=&quot;#ffffff&quot;&gt;1:N&lt;/font&gt;" style="text;html=1;strokeColor=none;fillColor=none;align=center;verticalAlign=middle;whiteSpace=wrap;rounded=0;" parent="1" vertex="1">
                    <mxGeometry x="1010" y="890" width="30" height="20" as="geometry"/>
                </mxCell>
                <mxCell id="201" style="edgeStyle=orthogonalEdgeStyle;html=1;entryX=0.5;entryY=1;entryDx=0;entryDy=0;fontColor=#FFFFFF;endArrow=none;endFill=0;strokeColor=#FFFFFF;strokeWidth=2;" parent="1" source="202" target="209" edge="1">
                    <mxGeometry relative="1" as="geometry">
                        <mxPoint x="800" y="1020" as="targetPoint"/>
                    </mxGeometry>
                </mxCell>
                <mxCell id="202" value="" style="swimlane;startSize=0;labelBackgroundColor=none;fontColor=#FFFFFF;strokeColor=#729FCF;strokeWidth=2;fillColor=none;" parent="1" vertex="1">
                    <mxGeometry x="720" y="1040" width="120" height="60" as="geometry">
                        <mxRectangle x="760" y="1040" width="50" height="40" as="alternateBounds"/>
                    </mxGeometry>
                </mxCell>
                <mxCell id="206" value="Socio" style="text;html=1;strokeColor=none;fillColor=none;align=left;verticalAlign=middle;whiteSpace=wrap;rounded=0;labelBackgroundColor=none;fontColor=#FFFFFF;strokeWidth=1;" parent="202" vertex="1">
                    <mxGeometry y="20" width="120" height="20" as="geometry"/>
                </mxCell>
                <mxCell id="276" value="ONG representada" style="text;html=1;strokeColor=none;fillColor=none;align=left;verticalAlign=middle;whiteSpace=wrap;rounded=0;labelBackgroundColor=none;fontColor=#FFFFFF;strokeWidth=1;" parent="202" vertex="1">
                    <mxGeometry y="40" width="120" height="20" as="geometry"/>
                </mxCell>
                <mxCell id="207" value="&lt;font color=&quot;#ffffff&quot;&gt;N&lt;/font&gt;" style="text;html=1;strokeColor=none;fillColor=none;align=center;verticalAlign=middle;whiteSpace=wrap;rounded=0;" parent="1" vertex="1">
                    <mxGeometry x="760" y="940" width="20" height="20" as="geometry"/>
                </mxCell>
                <mxCell id="208" value="&lt;font color=&quot;#ffffff&quot;&gt;1:N&lt;/font&gt;" style="text;html=1;strokeColor=none;fillColor=none;align=center;verticalAlign=middle;whiteSpace=wrap;rounded=0;" parent="1" vertex="1">
                    <mxGeometry x="820" y="890" width="30" height="20" as="geometry"/>
                </mxCell>
                <mxCell id="211" style="edgeStyle=orthogonalEdgeStyle;html=1;entryX=0.5;entryY=1;entryDx=0;entryDy=0;fontColor=#FFFFFF;endArrow=none;endFill=0;strokeColor=#FFFFFF;strokeWidth=2;" parent="1" source="209" target="210" edge="1">
                    <mxGeometry relative="1" as="geometry"/>
                </mxCell>
                <mxCell id="209" value="&lt;span style=&quot;color: rgb(255 , 255 , 255)&quot;&gt;Lista de socios participantes&lt;/span&gt;" style="rounded=0;whiteSpace=wrap;html=1;fillColor=none;strokeColor=#77BC65;strokeWidth=2;" parent="1" vertex="1">
                    <mxGeometry x="720" y="960" width="120" height="40" as="geometry"/>
                </mxCell>
                <mxCell id="213" style="edgeStyle=orthogonalEdgeStyle;html=1;entryX=0;entryY=0.5;entryDx=0;entryDy=0;fontColor=#FFFFFF;endArrow=none;endFill=0;strokeColor=#FFFFFF;strokeWidth=2;exitX=0.5;exitY=0;exitDx=0;exitDy=0;" parent="1" source="210" target="98" edge="1">
                    <mxGeometry relative="1" as="geometry">
                        <Array as="points">
                            <mxPoint x="780" y="840"/>
                        </Array>
                    </mxGeometry>
                </mxCell>
                <mxCell id="210" value="Participa" style="rhombus;whiteSpace=wrap;html=1;labelBackgroundColor=none;fontColor=#FFFFFF;strokeColor=#FF6D6D;strokeWidth=2;fillColor=none;" parent="1" vertex="1">
                    <mxGeometry x="740" y="880" width="80" height="40" as="geometry"/>
                </mxCell>
                <mxCell id="217" value="&lt;font color=&quot;#ffffff&quot;&gt;1&lt;/font&gt;" style="text;html=1;strokeColor=none;fillColor=none;align=center;verticalAlign=middle;whiteSpace=wrap;rounded=0;" parent="1" vertex="1">
                    <mxGeometry x="860" y="820" width="20" height="20" as="geometry"/>
                </mxCell>
                <mxCell id="219" style="edgeStyle=orthogonalEdgeStyle;html=1;entryX=0.5;entryY=1;entryDx=0;entryDy=0;fontColor=#FFFFFF;endArrow=none;endFill=0;strokeColor=#FFFFFF;strokeWidth=2;" parent="1" source="220" target="285" edge="1">
                    <mxGeometry relative="1" as="geometry">
                        <mxPoint x="620" y="1000" as="targetPoint"/>
                    </mxGeometry>
                </mxCell>
                <mxCell id="220" value="" style="swimlane;startSize=0;labelBackgroundColor=none;fontColor=#FFFFFF;strokeColor=#729FCF;strokeWidth=2;fillColor=none;" parent="1" vertex="1">
                    <mxGeometry x="560" y="1040" width="120" height="40" as="geometry">
                        <mxRectangle x="600" y="1040" width="50" height="40" as="alternateBounds"/>
                    </mxGeometry>
                </mxCell>
                <mxCell id="221" value="Socio" style="text;html=1;strokeColor=none;fillColor=none;align=left;verticalAlign=middle;whiteSpace=wrap;rounded=0;labelBackgroundColor=none;fontColor=#FFFFFF;strokeWidth=1;" parent="220" vertex="1">
                    <mxGeometry y="20" width="120" height="20" as="geometry"/>
                </mxCell>
                <mxCell id="222" value="&lt;font color=&quot;#ffffff&quot;&gt;1&lt;/font&gt;" style="text;html=1;strokeColor=none;fillColor=none;align=center;verticalAlign=middle;whiteSpace=wrap;rounded=0;" parent="1" vertex="1">
                    <mxGeometry x="600" y="940" width="20" height="20" as="geometry"/>
                </mxCell>
                <mxCell id="230" value="&lt;font color=&quot;#ffffff&quot;&gt;1&lt;/font&gt;" style="text;html=1;strokeColor=none;fillColor=none;align=center;verticalAlign=middle;whiteSpace=wrap;rounded=0;" parent="1" vertex="1">
                    <mxGeometry x="1020" y="600" width="20" height="20" as="geometry"/>
                </mxCell>
                <mxCell id="232" value="&lt;font color=&quot;#ffffff&quot;&gt;1&lt;/font&gt;" style="text;html=1;strokeColor=none;fillColor=none;align=center;verticalAlign=middle;whiteSpace=wrap;rounded=0;" parent="1" vertex="1">
                    <mxGeometry x="880" y="800" width="20" height="20" as="geometry"/>
                </mxCell>
                <mxCell id="234" value="&lt;font color=&quot;#ffffff&quot;&gt;1:1&lt;/font&gt;" style="text;html=1;strokeColor=none;fillColor=none;align=center;verticalAlign=middle;whiteSpace=wrap;rounded=0;" parent="1" vertex="1">
                    <mxGeometry x="680" y="890" width="30" height="20" as="geometry"/>
                </mxCell>
                <mxCell id="251" style="edgeStyle=none;html=1;entryX=0.5;entryY=1;entryDx=0;entryDy=0;endArrow=none;endFill=0;strokeColor=#FFFFFF;strokeWidth=2;" parent="1" target="281" edge="1">
                    <mxGeometry relative="1" as="geometry">
                        <mxPoint x="520" y="530" as="targetPoint"/>
                        <mxPoint x="520" y="560" as="sourcePoint"/>
                    </mxGeometry>
                </mxCell>
                <mxCell id="253" value="&lt;font color=&quot;#ffffff&quot;&gt;Lista ONGs&lt;/font&gt;" style="rounded=0;whiteSpace=wrap;html=1;fillColor=none;strokeColor=#77BC65;strokeWidth=2;" parent="1" vertex="1">
                    <mxGeometry x="460" y="560" width="120" height="40" as="geometry"/>
                </mxCell>
                <mxCell id="254" style="edgeStyle=orthogonalEdgeStyle;html=1;endArrow=none;endFill=0;strokeColor=#FFFFFF;strokeWidth=2;entryX=0.5;entryY=1;entryDx=0;entryDy=0;exitX=0.5;exitY=0;exitDx=0;exitDy=0;" parent="1" source="255" edge="1">
                    <mxGeometry relative="1" as="geometry">
                        <mxPoint x="520" y="710" as="sourcePoint"/>
                        <mxPoint x="520" y="600" as="targetPoint"/>
                    </mxGeometry>
                </mxCell>
                <mxCell id="255" value="" style="swimlane;startSize=0;labelBackgroundColor=none;fontColor=#FFFFFF;strokeColor=#729FCF;strokeWidth=2;fillColor=none;" parent="1" vertex="1">
                    <mxGeometry x="460" y="640" width="120" height="40" as="geometry">
                        <mxRectangle x="460" y="720" width="50" height="40" as="alternateBounds"/>
                    </mxGeometry>
                </mxCell>
                <mxCell id="256" value="ONG" style="text;html=1;strokeColor=none;fillColor=none;align=left;verticalAlign=middle;whiteSpace=wrap;rounded=0;labelBackgroundColor=none;fontColor=#FFFFFF;strokeWidth=1;" parent="255" vertex="1">
                    <mxGeometry y="20" width="120" height="20" as="geometry"/>
                </mxCell>
                <mxCell id="261" value="&lt;font color=&quot;#ffffff&quot;&gt;1&lt;/font&gt;" style="text;html=1;strokeColor=none;fillColor=none;align=center;verticalAlign=middle;whiteSpace=wrap;rounded=0;" parent="1" vertex="1">
                    <mxGeometry x="500" y="620" width="20" height="20" as="geometry"/>
                </mxCell>
                <mxCell id="262" value="&lt;font color=&quot;#ffffff&quot;&gt;1:1:N&lt;/font&gt;" style="text;html=1;strokeColor=none;fillColor=none;align=center;verticalAlign=middle;whiteSpace=wrap;rounded=0;" parent="1" vertex="1">
                    <mxGeometry x="570" y="510" width="30" height="20" as="geometry"/>
                </mxCell>
                <mxCell id="267" value="&lt;font color=&quot;#ffffff&quot;&gt;1&lt;/font&gt;" style="text;html=1;strokeColor=none;fillColor=none;align=center;verticalAlign=middle;whiteSpace=wrap;rounded=0;" parent="1" vertex="1">
                    <mxGeometry x="540" y="400" width="20" height="20" as="geometry"/>
                </mxCell>
                <mxCell id="281" value="Pertenece a" style="rhombus;whiteSpace=wrap;html=1;labelBackgroundColor=none;fontColor=#FFFFFF;strokeColor=#FF6D6D;strokeWidth=2;fillColor=none;" parent="1" vertex="1">
                    <mxGeometry x="470" y="480" width="100" height="40" as="geometry"/>
                </mxCell>
                <mxCell id="284" value="" style="rhombus;whiteSpace=wrap;html=1;labelBackgroundColor=none;fontColor=#FFFFFF;strokeColor=#FF6D6D;strokeWidth=2;fillColor=none;" parent="1" vertex="1">
                    <mxGeometry x="560" y="870" width="120" height="60" as="geometry"/>
                </mxCell>
                <mxCell id="289" style="edgeStyle=none;html=1;entryX=0.5;entryY=1;entryDx=0;entryDy=0;strokeColor=#FFFFFF;strokeWidth=2;endArrow=none;endFill=0;" parent="1" source="285" target="284" edge="1">
                    <mxGeometry relative="1" as="geometry"/>
                </mxCell>
                <mxCell id="285" value="" style="rounded=0;whiteSpace=wrap;html=1;fillColor=none;strokeColor=#77BC65;strokeWidth=2;" parent="1" vertex="1">
                    <mxGeometry x="560" y="960" width="120" height="40" as="geometry"/>
                </mxCell>
                <mxCell id="286" value="&lt;span style=&quot;color: rgb(255 , 255 , 255)&quot;&gt;Coordinador&lt;/span&gt;" style="rounded=0;whiteSpace=wrap;html=1;fillColor=none;strokeColor=#77BC65;strokeWidth=2;" parent="1" vertex="1">
                    <mxGeometry x="570" y="970" width="100" height="20" as="geometry"/>
                </mxCell>
                <mxCell id="295" value="&lt;font color=&quot;#ffffff&quot;&gt;historial presidentes&lt;/font&gt;" style="rounded=0;whiteSpace=wrap;html=1;fillColor=none;strokeColor=#77BC65;strokeWidth=2;" parent="1" vertex="1">
                    <mxGeometry x="1200" y="640" width="120" height="40" as="geometry"/>
                </mxCell>
                <mxCell id="296" style="edgeStyle=orthogonalEdgeStyle;html=1;endArrow=none;endFill=0;strokeColor=#FFFFFF;strokeWidth=2;entryX=0.5;entryY=1;entryDx=0;entryDy=0;exitX=0.5;exitY=0;exitDx=0;exitDy=0;" parent="1" source="297" target="295" edge="1">
                    <mxGeometry relative="1" as="geometry">
                        <mxPoint x="1380" y="900" as="sourcePoint"/>
                        <mxPoint x="1380" y="790" as="targetPoint"/>
                        <Array as="points"/>
                    </mxGeometry>
                </mxCell>
                <mxCell id="297" value="" style="swimlane;startSize=0;labelBackgroundColor=none;fontColor=#FFFFFF;strokeColor=#729FCF;strokeWidth=2;fillColor=none;" parent="1" vertex="1">
                    <mxGeometry x="1200" y="720" width="120" height="80" as="geometry">
                        <mxRectangle x="460" y="720" width="50" height="40" as="alternateBounds"/>
                    </mxGeometry>
                </mxCell>
                <mxCell id="298" value="ONG que sirvió" style="text;html=1;strokeColor=none;fillColor=none;align=left;verticalAlign=middle;whiteSpace=wrap;rounded=0;labelBackgroundColor=none;fontColor=#FFFFFF;strokeWidth=1;" parent="297" vertex="1">
                    <mxGeometry y="20" width="120" height="20" as="geometry"/>
                </mxCell>
                <mxCell id="160" value="Fecha inicio puesto" style="text;html=1;strokeColor=none;fillColor=none;align=left;verticalAlign=middle;whiteSpace=wrap;rounded=0;labelBackgroundColor=none;fontColor=#FFFFFF;strokeWidth=1;" parent="297" vertex="1">
                    <mxGeometry y="40" width="120" height="20" as="geometry"/>
                </mxCell>
                <mxCell id="293" value="Fecha fin de puesto" style="text;html=1;strokeColor=none;fillColor=none;align=left;verticalAlign=middle;whiteSpace=wrap;rounded=0;labelBackgroundColor=none;fontColor=#FFFFFF;strokeWidth=1;" parent="297" vertex="1">
                    <mxGeometry y="60" width="120" height="20" as="geometry"/>
                </mxCell>
                <mxCell id="299" value="&lt;font color=&quot;#ffffff&quot;&gt;1&lt;/font&gt;" style="text;html=1;strokeColor=none;fillColor=none;align=center;verticalAlign=middle;whiteSpace=wrap;rounded=0;" parent="1" vertex="1">
                    <mxGeometry x="1260" y="620" width="20" height="20" as="geometry"/>
                </mxCell>
                <mxCell id="300" value="&lt;font color=&quot;#ffffff&quot;&gt;1:1&lt;/font&gt;" style="text;html=1;strokeColor=none;fillColor=none;align=center;verticalAlign=middle;whiteSpace=wrap;rounded=0;" parent="1" vertex="1">
                    <mxGeometry x="925" y="600" width="30" height="20" as="geometry"/>
                </mxCell>
                <mxCell id="301" value="Registrado" style="rhombus;whiteSpace=wrap;html=1;labelBackgroundColor=none;fontColor=#FFFFFF;strokeColor=#FF6D6D;strokeWidth=2;fillColor=none;" parent="1" vertex="1">
                    <mxGeometry x="890" y="560" width="100" height="40" as="geometry"/>
                </mxCell>
                <mxCell id="306" style="edgeStyle=none;html=1;endArrow=none;endFill=0;strokeColor=#FFFFFF;strokeWidth=2;" parent="1" source="304" target="295" edge="1">
                    <mxGeometry relative="1" as="geometry"/>
                </mxCell>
                <mxCell id="304" value="Registrado" style="rhombus;whiteSpace=wrap;html=1;labelBackgroundColor=none;fontColor=#FFFFFF;strokeColor=#FF6D6D;strokeWidth=2;fillColor=none;" parent="1" vertex="1">
                    <mxGeometry x="1210" y="560" width="100" height="40" as="geometry"/>
                </mxCell>
                <mxCell id="307" value="&lt;font color=&quot;#ffffff&quot;&gt;1&lt;/font&gt;" style="text;html=1;strokeColor=none;fillColor=none;align=center;verticalAlign=middle;whiteSpace=wrap;rounded=0;" parent="1" vertex="1">
                    <mxGeometry x="1160" y="560" width="20" height="20" as="geometry"/>
                </mxCell>
                <mxCell id="308" value="&lt;font color=&quot;#ffffff&quot;&gt;1:1&lt;/font&gt;" style="text;html=1;strokeColor=none;fillColor=none;align=center;verticalAlign=middle;whiteSpace=wrap;rounded=0;" parent="1" vertex="1">
                    <mxGeometry x="1210" y="590" width="30" height="20" as="geometry"/>
                </mxCell>
            </root>
        </mxGraphModel>
    </diagram>
</mxfile>